<?xml version="1.0" standalone="no"?>
<!DOCTYPE svg PUBLIC "-//W3C//DTD SVG 20010904//EN"
 "http://www.w3.org/TR/2001/REC-SVG-20010904/DTD/svg10.dtd">
<svg version="1.0" xmlns="http://www.w3.org/2000/svg"
 width="500.000000pt" height="500.000000pt" viewBox="0 0 500.000000 500.000000"
 preserveAspectRatio="xMidYMid meet">

<g transform="translate(0.000000,500.000000) scale(0.100000,-0.100000)"
fill="#000000" stroke="none">
<path d="M0 2500 l0 -2500 2500 0 2500 0 0 2500 0 2500 -2500 0 -2500 0 0
-2500z m3809 234 c58 -31 130 -70 159 -86 l52 -29 0 50 c0 46 -2 51 -22 51
-13 0 -50 16 -83 35 l-60 35 123 0 122 0 0 -145 c0 -80 -3 -145 -6 -145 -4 0
-45 21 -93 47 -347 187 -314 173 -404 173 -49 0 -77 -4 -71 -9 7 -7 224 -124
526 -282 15 -8 8 -22 -53 -102 -39 -50 -74 -92 -78 -92 -3 0 -120 60 -258 133
l-253 133 0 46 0 45 33 -20 c77 -46 452 -242 463 -242 9 0 44 51 44 63 0 3
-60 37 -134 76 -74 39 -150 79 -168 89 -18 10 -79 42 -135 72 l-103 53 0 54 0
53 146 0 147 0 106 -56z m-2413 3 c36 -19 62 -54 71 -97 5 -28 4 -30 -25 -30
-24 0 -32 6 -40 29 -14 38 -58 61 -120 61 -64 0 -102 -28 -102 -74 0 -19 8
-40 18 -49 9 -9 64 -27 122 -41 88 -20 109 -29 132 -55 23 -26 28 -40 28 -85
0 -93 -67 -145 -188 -146 -106 0 -178 49 -189 129 -6 40 -5 41 26 41 21 0 31
-5 31 -15 0 -89 154 -137 234 -74 26 21 35 69 18 96 -11 17 -68 40 -149 58
-93 21 -129 45 -142 93 -19 68 16 137 84 169 38 17 149 12 191 -10z m1004 -22
c0 -31 -3 -35 -25 -35 -22 0 -25 4 -25 35 0 31 3 35 25 35 22 0 25 -4 25 -35z
m-140 -55 c0 -49 1 -50 30 -50 23 0 30 -4 30 -20 0 -16 -7 -20 -30 -20 l-31 0
3 -127 c3 -125 3 -127 27 -133 16 -4 25 -13 26 -28 1 -20 -3 -22 -41 -22 -67
0 -74 18 -74 177 l0 133 -25 0 c-18 0 -25 5 -25 20 0 15 7 20 25 20 23 0 25 3
25 50 0 49 1 50 30 50 29 0 30 -1 30 -50z m590 0 c0 -47 2 -50 25 -50 18 0 25
-5 25 -20 0 -15 -7 -20 -25 -20 l-25 0 0 -129 c0 -127 0 -130 23 -133 14 -2
23 -11 25 -25 3 -21 -1 -23 -37 -23 -63 0 -71 19 -71 177 l0 133 -25 0 c-18 0
-25 5 -25 20 0 15 7 20 25 20 23 0 25 3 25 50 0 49 1 50 30 50 29 0 30 -1 30
-50z m-771 -54 c43 -23 51 -54 51 -206 l0 -140 -30 0 -30 0 0 133 c0 155 -8
177 -66 177 -82 0 -104 -42 -104 -200 l0 -110 -30 0 -30 0 0 175 0 175 30 0
c24 0 30 -4 30 -21 0 -20 1 -20 31 5 35 30 102 35 148 12z m584 3 c29 -15 56
-50 57 -71 0 -27 -41 -22 -65 7 -31 39 -127 36 -140 -4 -10 -31 6 -50 49 -61
140 -37 170 -57 168 -116 -4 -90 -92 -135 -204 -104 -67 19 -111 110 -53 110
14 0 25 -5 25 -10 0 -25 50 -60 84 -60 68 0 104 28 91 70 -6 20 -34 33 -118
54 -77 19 -97 38 -97 90 0 42 19 75 55 94 26 15 120 15 148 1z m498 -4 c42
-22 49 -49 49 -182 0 -106 1 -115 20 -120 11 -3 20 -14 20 -24 0 -27 -64 -27
-83 1 -13 19 -14 19 -62 -5 -56 -29 -94 -31 -135 -10 -37 19 -50 43 -50 90 0
72 35 99 141 111 75 8 89 16 89 54 0 35 -19 50 -67 57 -29 4 -44 0 -65 -17
-16 -12 -28 -28 -28 -36 0 -9 -11 -14 -29 -14 -29 0 -29 1 -20 32 5 18 9 34 9
36 0 1 15 11 33 22 40 25 134 27 178 5z m-1550 -134 c24 -77 47 -137 50 -133
4 4 26 67 50 140 l43 132 32 0 32 0 -73 -197 c-104 -286 -108 -293 -181 -293
-29 0 -34 3 -34 24 0 21 6 25 32 28 27 2 36 10 50 40 l17 36 -64 178 c-36 98
-65 180 -65 181 0 2 15 3 33 3 l34 0 44 -139z m789 -36 l0 -175 -25 0 -25 0 0
175 0 175 25 0 25 0 0 -175z m1240 -143 l125 -70 3 -41 c2 -23 0 -41 -3 -41
-3 0 -66 33 -138 74 -73 40 -151 83 -174 95 -41 20 -43 24 -43 66 l0 45 53
-29 c28 -16 108 -61 177 -99z"/>
<path d="M3076 2424 c-78 -13 -112 -39 -100 -78 13 -41 26 -48 77 -43 67 6
100 38 95 93 l-3 40 -69 -12z"/>
</g>
</svg>
