<svg xmlns="http://www.w3.org/2000/svg" viewBox="0 0 24 24" width="48" height="48">
  <defs>
    <linearGradient id="dockerGrad" x1="0%" y1="0%" x2="100%" y2="100%">
      <stop offset="0%" style="stop-color:#2496ED;stop-opacity:1" />
      <stop offset="100%" style="stop-color:#0073EC;stop-opacity:1" />
    </linearGradient>
  </defs>
  <path fill="url(#dockerGrad)" d="M13.938 8.903c-.155 0-.31.012-.463.034.05-.337.075-.68.075-1.025C13.55 4.947 11.603 3 9.637 3c-1.204 0-2.267.638-2.854 1.594a3.5 3.5 0 00-1.896-.558C3.924 4.036 3 4.96 3 6.083c0 .27.047.527.13.767C1.876 7.18 1 8.417 1 9.864 1 11.877 2.623 13.5 4.636 13.5h9.302c1.654 0 2.994-1.34 2.994-2.994 0-1.654-1.34-2.994-2.994-2.994zM4.636 12.5c-1.46 0-2.636-1.176-2.636-2.636 0-1.137.718-2.13 1.787-2.503l.482-.166-.09-.506A1.5 1.5 0 014 6.083c0-.613.497-1.11 1.11-1.11.447 0 .847.268 1.018.683l.19.45.48-.12A2.6 2.6 0 019.637 4c1.46 0 2.636 1.176 2.636 2.636 0 .354-.07.693-.197 1.004l-.24.59.59.24c.311.127.65.197 1.004.197 1.102 0 1.994.892 1.994 1.994s-.892 1.994-1.994 1.994H4.636z"/>
</svg>
