<svg xmlns="http://www.w3.org/2000/svg" viewBox="0 0 24 24" width="48" height="48">
  <defs>
    <linearGradient id="gitGrad" x1="0%" y1="0%" x2="100%" y2="100%">
      <stop offset="0%" style="stop-color:#F05032;stop-opacity:1" />
      <stop offset="100%" style="stop-color:#DE4C2A;stop-opacity:1" />
    </linearGradient>
  </defs>
  <path fill="url(#gitGrad)" d="M23.547 10.93L13.067.453a1.55 1.55 0 00-2.194 0L8.753 2.572l2.77 2.77a1.842 1.842 0 012.332 2.35l2.67 2.67a1.842 1.842 0 01-2.606 2.606L11.25 7.998a1.842 1.842 0 01-2.35-2.332L6.13 2.896.453 8.573a1.55 1.55 0 000 2.194l10.48 10.48a1.55 1.55 0 002.194 0l10.42-10.42a1.55 1.55 0 000-2.194z"/>
</svg>
