<svg xmlns="http://www.w3.org/2000/svg" viewBox="0 0 24 24" width="48" height="48">
  <defs>
    <linearGradient id="vscodeGrad" x1="0%" y1="0%" x2="100%" y2="100%">
      <stop offset="0%" style="stop-color:#007ACC;stop-opacity:1" />
      <stop offset="100%" style="stop-color:#005A9E;stop-opacity:1" />
    </linearGradient>
  </defs>
  <path fill="url(#vscodeGrad)" d="M23.15 2.587L18.21.21a1.494 1.494 0 00-1.705.29l-9.46 8.63-4.12-3.128a.999.999 0 00-1.276.057L.327 7.261A1 1 0 00.326 8.74L3.899 12 .326 15.26a1 1 0 00.001 1.479l1.322 1.2a1 1 0 001.276.057l4.12-3.128 9.46 8.63a1.492 1.492 0 001.704.29l4.942-2.376A1.5 1.5 0 0024 20.06V3.939a1.5 1.5 0 00-.85-1.352zM20.903 18.21l-7.57-5.7 7.57-5.7v11.4z"/>
</svg>
